# Blender v2.80 (sub 75) OBJ File: ''
# www.blender.org
mtllib button.mtl
o Cube.099_Cube.109
v -0.065513 -0.778073 0.015000
v -0.090000 -0.818884 0.015000
v -0.090000 -0.818884 -0.010450
v -0.065513 -0.778073 -0.010450
v -0.090000 -1.037261 0.010450
v -0.090000 -1.026538 0.015000
v -0.059079 -1.078073 0.015000
v -0.065513 -1.078073 0.010450
v -0.065513 -1.078073 -0.010450
v -0.090000 -1.037261 -0.010450
v 0.090000 -0.818884 0.010450
v 0.090000 -0.829608 0.015000
v 0.059079 -0.778073 0.015000
v 0.065513 -0.778073 0.010450
v 0.065513 -0.778073 -0.010450
v 0.090000 -0.818884 -0.010450
v 0.065513 -1.078073 0.010450
v 0.059079 -1.078073 0.015000
v 0.090000 -1.026538 0.015000
v 0.090000 -1.037261 0.010450
v 0.090000 -1.037261 -0.010450
v 0.065513 -1.078073 -0.010450
v -0.059079 -0.778073 -0.015000
v -0.090000 -0.829608 -0.015000
v -0.090000 -1.026538 -0.015000
v -0.059079 -1.078073 -0.015000
v 0.059079 -1.078073 -0.015000
v 0.090000 -1.026538 -0.015000
v 0.090000 -0.829608 -0.015000
v 0.059079 -0.778073 -0.015000
v -0.068879 -0.839345 -0.015000
v -0.070934 -0.847614 -0.015000
v -0.073619 -0.840916 -0.015000
v -0.069514 -0.840640 -0.015000
v -0.070087 -0.842283 -0.015000
v -0.070541 -0.844113 -0.015000
v -0.070833 -0.845950 -0.015000
v -0.048275 -0.809850 -0.015000
v -0.053237 -0.813275 -0.015000
v -0.052294 -0.805375 -0.015000
v -0.049274 -0.810018 -0.015000
v -0.050376 -0.810504 -0.015000
v -0.051474 -0.811262 -0.015000
v -0.052459 -0.812217 -0.015000
v -0.053237 -1.042870 -0.015000
v -0.048275 -1.046296 -0.015000
v -0.052294 -1.050771 -0.015000
v -0.052459 -1.043929 -0.015000
v -0.051474 -1.044884 -0.015000
v -0.050376 -1.045642 -0.015000
v -0.049274 -1.046128 -0.015000
v -0.070934 -1.008531 -0.015000
v -0.068879 -1.016801 -0.015000
v -0.073619 -1.015229 -0.015000
v -0.070833 -1.010196 -0.015000
v -0.070541 -1.012033 -0.015000
v -0.070087 -1.013862 -0.015000
v -0.069514 -1.015505 -0.015000
v 0.053237 -0.813275 -0.015000
v 0.048275 -0.809850 -0.015000
v 0.052294 -0.805375 -0.015000
v 0.052459 -0.812217 -0.015000
v 0.051474 -0.811262 -0.015000
v 0.050376 -0.810504 -0.015000
v 0.049274 -0.810018 -0.015000
v 0.070934 -0.847614 -0.015000
v 0.068879 -0.839345 -0.015000
v 0.073619 -0.840916 -0.015000
v 0.070833 -0.845950 -0.015000
v 0.070541 -0.844113 -0.015000
v 0.070087 -0.842283 -0.015000
v 0.069514 -0.840640 -0.015000
v 0.068879 -1.016801 -0.015000
v 0.070934 -1.008531 -0.015000
v 0.073619 -1.015229 -0.015000
v 0.069514 -1.015505 -0.015000
v 0.070087 -1.013862 -0.015000
v 0.070541 -1.012033 -0.015000
v 0.070833 -1.010196 -0.015000
v 0.048275 -1.046296 -0.015000
v 0.053237 -1.042870 -0.015000
v 0.052294 -1.050771 -0.015000
v 0.049274 -1.046128 -0.015000
v 0.050376 -1.045642 -0.015000
v 0.051474 -1.044884 -0.015000
v 0.052459 -1.043929 -0.015000
vt 0.339939 0.464792
vt 0.281543 0.561196
vt 0.058396 0.561196
vt 0.000000 0.464792
vt 0.000000 0.096404
vt 0.058396 0.000000
vt 0.293694 0.000000
vt 0.339939 0.076344
vt 0.991503 0.076338
vt 0.952467 0.076339
vt 0.959321 0.000001
vt 0.998357 0.000000
vt 0.791844 0.671872
vt 0.783362 0.683910
vt 0.744392 0.683919
vt 0.735909 0.671886
vt 0.735909 0.450853
vt 0.744392 0.438815
vt 0.791844 0.438804
vt 0.998357 0.561196
vt 0.959321 0.561197
vt 0.952467 0.484847
vt 0.991503 0.484846
vt 0.679878 0.515143
vt 0.727412 0.515142
vt 0.735909 0.535202
vt 0.735909 0.903589
vt 0.727412 0.923650
vt 0.688375 0.923650
vt 0.679878 0.903591
vt 0.055936 0.794262
vt 0.047453 0.806300
vt 0.008483 0.806310
vt 0.000000 0.794276
vt 0.000000 0.573243
vt 0.008483 0.561205
vt 0.047453 0.561196
vt 0.055936 0.573230
vt 0.943969 0.096399
vt 1.000000 0.096398
vt 1.000000 0.464786
vt 0.943969 0.464787
vt 0.734266 0.999999
vt 0.695230 1.000000
vt 0.621482 0.561196
vt 0.679878 0.464792
vt 0.679878 0.484852
vt 0.633634 0.561196
vt 0.679878 0.096404
vt 0.621482 0.000000
vt 0.633633 0.000000
vt 0.679878 0.076344
vt 0.339939 0.484852
vt 0.293694 0.561196
vt 0.398335 0.000000
vt 0.339939 0.096404
vt 0.339939 0.076344
vt 0.386184 0.000000
vt 0.046245 0.561196
vt 0.000000 0.484852
vt 0.339939 0.464792
vt 0.398335 0.561196
vt 0.386184 0.561196
vt 0.339939 0.484852
vt 0.000000 0.076344
vt 0.046245 0.000000
vt 0.686733 0.438804
vt 0.734266 0.438804
vt 0.608668 0.510124
vt 0.610449 0.495344
vt 0.639989 0.446577
vt 0.648942 0.443637
vt 0.648942 0.117559
vt 0.639989 0.114619
vt 0.610449 0.065852
vt 0.608668 0.051072
vt 0.370875 0.117559
vt 0.375947 0.130088
vt 0.375947 0.431108
vt 0.370875 0.443637
vt 0.379828 0.446577
vt 0.409368 0.495344
vt 0.411149 0.510124
vt 0.601078 0.059444
vt 0.418739 0.059444
vt 0.411149 0.051072
vt 0.418739 0.501752
vt 0.601078 0.501752
vt 0.409368 0.065852
vt 0.379828 0.114619
vt 0.643871 0.431108
vt 0.643871 0.130088
vt 0.641189 0.444153
vt 0.642271 0.441080
vt 0.643129 0.437658
vt 0.643681 0.434221
vt 0.602965 0.501438
vt 0.605046 0.500528
vt 0.607119 0.499110
vt 0.608981 0.497324
vt 0.608981 0.063872
vt 0.607119 0.062085
vt 0.605046 0.060668
vt 0.602965 0.059758
vt 0.643681 0.126974
vt 0.643129 0.123538
vt 0.642271 0.120116
vt 0.641189 0.117042
vt 0.410836 0.497324
vt 0.412698 0.499111
vt 0.414771 0.500528
vt 0.416853 0.501438
vt 0.376137 0.434221
vt 0.376688 0.437658
vt 0.377547 0.441080
vt 0.378629 0.444153
vt 0.378629 0.117042
vt 0.377547 0.120116
vt 0.376688 0.123538
vt 0.376137 0.126974
vt 0.416853 0.059758
vt 0.414771 0.060668
vt 0.412698 0.062085
vt 0.410836 0.063872
vn 0.0000 0.0000 1.0000
vn 0.8575 -0.5145 0.0000
vn 0.0000 1.0000 -0.0000
vn 0.8575 0.5145 0.0000
vn -1.0000 0.0000 0.0000
vn 0.0000 -1.0000 0.0000
vn 1.0000 0.0000 0.0000
vn -0.8575 -0.5145 0.0000
vn -0.5455 0.3273 -0.7715
vn -0.5455 -0.3273 -0.7715
vn -0.5455 -0.3273 0.7715
vn 0.5455 -0.3273 -0.7715
vn 0.5455 -0.3273 0.7715
vn 0.5455 0.3273 -0.7715
vn 0.5455 0.3273 0.7715
vn -0.8575 0.5145 0.0000
vn -0.0000 0.0000 -1.0000
usemtl None
s 1
f 6/1/1 7/2/1 18/3/1 19/4/1 12/5/1 13/6/1 1/7/1 2/8/1
f 21/9/2 20/10/2 17/11/2 22/12/2
f 13/13/3 14/14/3 15/15/3 30/16/3 23/17/3 4/18/3 1/19/3
f 15/20/4 14/21/4 11/22/4 16/23/4
f 2/24/5 3/25/5 24/26/5 25/27/5 10/28/5 5/29/5 6/30/5
f 7/31/6 8/32/6 9/33/6 26/34/6 27/35/6 22/36/6 17/37/6 18/38/6
f 19/39/7 20/10/7 21/9/7 28/40/7 29/41/7 16/23/7 11/22/7 12/42/7
f 9/43/8 8/44/8 5/29/8 10/28/8
f 23/45/9 24/46/9 3/47/9 4/48/9
f 25/49/10 26/50/10 9/51/10 10/52/10
f 7/2/11 6/1/11 5/53/11 8/54/11
f 27/55/12 28/56/12 21/57/12 22/58/12
f 19/4/13 18/3/13 17/59/13 20/60/13
f 29/61/14 30/62/14 15/63/14 16/64/14
f 13/6/15 12/5/15 11/65/15 14/66/15
f 1/67/16 4/68/16 3/25/16 2/24/16
f 40/69/17 39/70/17 31/71/17 33/72/17 24/46/17 23/45/17
f 54/73/17 53/74/17 45/75/17 47/76/17 26/50/17 25/49/17
f 75/77/17 74/78/17 66/79/17 68/80/17 29/61/17 28/56/17
f 68/80/17 67/81/17 59/82/17 61/83/17 30/62/17 29/61/17
f 47/76/17 46/84/17 80/85/17 82/86/17 27/55/17 26/50/17
f 61/83/17 60/87/17 38/88/17 40/69/17 23/45/17 30/62/17
f 82/86/17 81/89/17 73/90/17 75/77/17 28/56/17 27/55/17
f 33/72/17 32/91/17 52/92/17 54/73/17 25/49/17 24/46/17
f 31/71/17 34/93/17 33/72/17
f 34/93/17 35/94/17 33/72/17
f 35/94/17 36/95/17 33/72/17
f 36/95/17 37/96/17 33/72/17
f 37/96/17 32/91/17 33/72/17
f 38/88/17 41/97/17 40/69/17
f 41/97/17 42/98/17 40/69/17
f 42/98/17 43/99/17 40/69/17
f 43/99/17 44/100/17 40/69/17
f 44/100/17 39/70/17 40/69/17
f 45/75/17 48/101/17 47/76/17
f 48/101/17 49/102/17 47/76/17
f 49/102/17 50/103/17 47/76/17
f 50/103/17 51/104/17 47/76/17
f 51/104/17 46/84/17 47/76/17
f 52/92/17 55/105/17 54/73/17
f 55/105/17 56/106/17 54/73/17
f 56/106/17 57/107/17 54/73/17
f 57/107/17 58/108/17 54/73/17
f 58/108/17 53/74/17 54/73/17
f 59/82/17 62/109/17 61/83/17
f 62/109/17 63/110/17 61/83/17
f 63/110/17 64/111/17 61/83/17
f 64/111/17 65/112/17 61/83/17
f 65/112/17 60/87/17 61/83/17
f 66/79/17 69/113/17 68/80/17
f 69/113/17 70/114/17 68/80/17
f 70/114/17 71/115/17 68/80/17
f 71/115/17 72/116/17 68/80/17
f 72/116/17 67/81/17 68/80/17
f 73/90/17 76/117/17 75/77/17
f 76/117/17 77/118/17 75/77/17
f 77/118/17 78/119/17 75/77/17
f 78/119/17 79/120/17 75/77/17
f 79/120/17 74/78/17 75/77/17
f 80/85/17 83/121/17 82/86/17
f 83/121/17 84/122/17 82/86/17
f 84/122/17 85/123/17 82/86/17
f 85/123/17 86/124/17 82/86/17
f 86/124/17 81/89/17 82/86/17
f 53/74/17 58/108/17 57/107/17 56/106/17 55/105/17 52/92/17 32/91/17 37/96/17 36/95/17 35/94/17 34/93/17 31/71/17 39/70/17 44/100/17 43/99/17 42/98/17 41/97/17 38/88/17 60/87/17 65/112/17 64/111/17 63/110/17 62/109/17 59/82/17 67/81/17 72/116/17 71/115/17 70/114/17 69/113/17 66/79/17 74/78/17 79/120/17 78/119/17 77/118/17 76/117/17 73/90/17 81/89/17 86/124/17 85/123/17 84/122/17 83/121/17 80/85/17 46/84/17 51/104/17 50/103/17 49/102/17 48/101/17 45/75/17
o Cube.000_Cube.001
v -0.068879 -0.839345 -0.009918
v -0.070934 -0.847614 -0.009918
v -0.048275 -0.809850 -0.009918
v -0.053237 -0.813275 -0.009918
v -0.053237 -1.042870 -0.009918
v -0.048275 -1.046296 -0.009918
v -0.070934 -1.008531 -0.009918
v -0.068879 -1.016801 -0.009918
v 0.053237 -0.813275 -0.009918
v 0.048275 -0.809850 -0.009918
v 0.070934 -0.847614 -0.009918
v 0.068879 -0.839345 -0.009918
v 0.070934 -1.008531 -0.009918
v 0.048275 -1.046296 -0.009918
v -0.053237 -0.813275 -0.034021
v -0.048275 -0.809850 -0.034021
v -0.049978 -0.814694 -0.036927
v -0.068879 -0.839345 -0.034021
v -0.068027 -0.844777 -0.036927
v -0.070934 -0.847614 -0.034021
v -0.068879 -1.016801 -0.034021
v -0.070934 -1.008531 -0.034021
v -0.068027 -1.011369 -0.036927
v -0.053237 -1.042870 -0.034021
v -0.049978 -1.041451 -0.036927
v -0.048275 -1.046296 -0.034021
v 0.048275 -1.046296 -0.034021
v 0.049978 -1.041451 -0.036927
v 0.068027 -1.011369 -0.036927
v 0.070934 -1.008531 -0.034021
v 0.068879 -0.839345 -0.034021
v 0.070934 -0.847614 -0.034021
v 0.068027 -0.844777 -0.036927
v 0.053237 -0.813275 -0.034021
v 0.049978 -0.814694 -0.036927
v 0.048275 -0.809850 -0.034021
vt 0.812449 0.442556
vt 0.816827 0.491327
vt 0.799844 0.491327
vt 0.795465 0.442556
vt 0.817403 0.506797
vt 0.817403 0.807816
vt 0.800419 0.807816
vt 0.800419 0.506797
vt 0.077185 0.569030
vt 0.077185 0.749641
vt 0.060230 0.749645
vt 0.060230 0.569034
vt 0.940397 0.375220
vt 0.906309 0.431494
vt 0.717538 0.431494
vt 0.683451 0.375220
vt 0.683451 0.063584
vt 0.717538 0.007310
vt 0.906309 0.007310
vt 0.940397 0.063584
vt 0.842961 0.506797
vt 0.842961 0.807816
vt 0.825977 0.807816
vt 0.825977 0.506797
vt 0.098434 0.569030
vt 0.098434 0.749641
vt 0.081479 0.749645
vt 0.081479 0.569034
vt 0.838007 0.442556
vt 0.842386 0.491327
vt 0.825402 0.491327
vt 0.821023 0.442556
vt 0.000000 0.000000
vt 0.795465 0.872049
vt 0.812449 0.872049
vt 0.816827 0.823285
vt 0.799844 0.823285
vt 0.000000 0.000000
vt 0.000000 0.000000
vn -0.8575 -0.5145 0.0000
vn -1.0000 0.0000 0.0000
vn 0.0000 -1.0000 0.0000
vn 0.0000 0.0000 -1.0000
vn 1.0000 0.0000 0.0000
vn 0.0000 1.0000 0.0000
vn 0.8575 0.5145 0.0000
vn -0.3282 0.7369 -0.5909
vn -0.4964 0.5041 -0.7067
vn -0.7018 0.6134 -0.3623
vn -0.5681 0.8229 0.0000
vn -0.8658 0.1242 -0.4847
vn -0.8768 0.3038 -0.3727
vn -0.8756 0.2047 -0.4376
vn -0.8154 -0.0623 -0.5755
vn -0.7969 -0.2081 -0.5671
vn -0.7479 -0.3886 -0.5383
vn -0.6176 -0.6418 -0.4546
vn -0.2203 -0.7572 -0.6149
vn 0.0342 -0.7563 -0.6534
vn 0.7439 -0.4463 -0.4974
vn 0.7610 0.0522 -0.6466
vn 0.9190 -0.1060 -0.3798
vn 0.5681 0.8229 0.0000
vn 0.5677 0.6277 -0.5326
vn 0.3282 0.7369 -0.5909
vn 0.3345 0.4785 -0.8119
vn 0.7953 0.3056 -0.5235
vn 0.9705 0.2412 0.0000
vn -0.8575 0.5145 0.0000
usemtl None
s 1
f 91/125/18 94/126/18 107/127/18 110/128/18
f 93/129/19 88/130/19 106/131/19 108/132/19
f 100/133/20 92/134/20 112/135/20 113/136/20
f 115/137/21 114/138/21 111/139/21 109/140/21 105/141/21 103/142/21 121/143/21 119/144/21
f 97/145/22 99/146/22 116/147/22 118/148/22
f 89/149/23 96/150/23 122/151/23 102/152/23
f 95/153/24 98/154/24 117/155/24 120/156/24
f 102/152/25 103/157/26 101/158/27
f 89/149/28 102/152/25 101/158/27 90/159/28
f 106/131/29 88/130/30 87/160/30 104/161/30 101/158/27 103/142/26 105/141/31
f 94/126/32 93/129/32 108/132/32 106/131/29 105/141/31 109/140/33 107/127/34
f 110/128/35 107/127/34 109/140/33 111/139/36 112/135/37 92/134/35 91/125/35
f 112/135/37 111/139/36 114/138/38 115/137/38 119/144/39 118/148/40 116/147/38 99/146/38 100/133/38 113/136/38
f 96/150/41 95/153/41 120/156/42 122/151/43
f 121/162/44 122/151/43 120/156/42
f 103/157/26 102/152/25 122/151/43 121/162/44
f 118/148/40 117/155/45 98/154/46 97/145/46
f 119/163/39 117/155/45 118/148/40
f 121/162/44 120/156/42 117/155/45 119/163/39
f 87/160/47 90/159/47 101/158/47 104/161/47
